<?xml version="1.0" standalone="no"?>
<!DOCTYPE svg PUBLIC "-//W3C//DTD SVG 20010904//EN"
 "http://www.w3.org/TR/2001/REC-SVG-20010904/DTD/svg10.dtd">
<svg version="1.0" xmlns="http://www.w3.org/2000/svg"
 width="119.000000pt" height="124.000000pt" viewBox="0 0 119.000000 124.000000"
 preserveAspectRatio="xMidYMid meet">
<metadata>
Created by potrace 1.10, written by Peter Selinger 2001-2011
</metadata>
<g transform="translate(0.000000,124.000000) scale(0.050000,-0.050000)"
fill="#3d85c6" stroke="none">
<path d="M1550 2221 c-188 -78 -195 -390 -11 -468 l59 -25 -74 -105 -74 -106
-65 76 c-40 48 -60 89 -52 107 76 175 -32 320 -223 300 -58 -6 -78 -27 -442
-473 -351 -432 -384 -490 -339 -598 50 -120 95 -129 610 -129 254 0 461 -2
461 -5 3 -78 105 -587 122 -607 54 -66 198 -4 198 85 0 91 -124 796 -145 822
-14 18 -111 25 -357 25 -186 0 -338 4 -338 10 0 5 60 82 134 171 l135 161 40
-56 c131 -181 222 -231 302 -165 75 62 331 460 320 497 -7 22 -1 41 15 48 38
14 94 138 94 207 0 169 -206 296 -370 228z m190 -262 c0 -63 -73 -134 -104
-101 -18 19 -18 24 -1 14 16 -9 21 -4 13 16 -7 17 -22 29 -34 26 -45 -8 -40
88 4 100 23 6 42 20 42 31 0 12 18 5 40 -15 22 -20 40 -52 40 -71z m-564 -263
c6 -68 0 -77 -74 -115 -43 -22 -92 -59 -107 -81 -16 -22 -35 -34 -42 -27 -7 8
-13 2 -13 -11 0 -14 -31 -64 -70 -111 -38 -47 -70 -95 -70 -108 0 -13 -7 -23
-16 -23 -33 0 -13 -89 30 -137 87 -93 54 -123 -131 -123 -139 0 -198 47 -157
124 52 96 99 155 116 145 10 -6 18 2 18 18 0 17 32 64 70 104 39 41 70 80 70
87 1 25 126 152 144 147 10 -4 14 3 7 13 -16 27 151 184 189 177 19 -3 32 -33
36 -79z"/>
</g>
</svg>
